<svg width="105" height="100" viewBox="0 0 105 100" fill="none" xmlns="http://www.w3.org/2000/svg">
<path d="M12.5267 0.5C6.16217 0.5 0.971191 5.44141 0.971191 11.5V88.5C0.971191 94.5586 6.16217 99.5 12.5267 99.5H93.4156C99.7802 99.5 104.971 94.5586 104.971 88.5V11.5C104.971 5.44141 99.7802 0.5 93.4156 0.5H12.5267ZM20.6517 26.2812H35.6379C48.9313 26.2812 51.1656 34.0586 51.1656 39C51.1656 46.1543 45.9972 48.4102 44.8462 48.9688C45.9972 49.5273 51.8879 51.0312 51.8879 59.2812C52.4747 69.1855 45.9747 73.0312 36.7212 73.0312H20.6517V26.2812ZM61.0962 26.2812H82.4017V31.7812H61.0962V26.2812ZM30.4017 34.0156V45.5312H35.6379C39.1136 45.5312 41.4156 44.4355 41.4156 40.0312C41.4156 36.1855 39.6778 34.0156 35.6379 34.0156H30.4017ZM73.7351 37.9688C81.8149 37.9688 87.6379 42.3301 87.6379 54.9844V58.7656H67.9573C67.9573 60.4199 68.0701 66.5 74.999 66.5C79.6257 66.5 81.7924 64.3301 82.9434 63.2344L87.0962 68.7344C86.5094 69.293 82.5146 73.7188 74.999 73.7188C66.3323 73.7188 59.2906 69.293 59.2906 57.7344V54.9844C59.2906 42.3301 66.2195 37.9688 73.7351 37.9688ZM72.6517 45.0156C70.9139 45.0156 67.4156 45.6387 67.4156 52.2344H77.1656C77.1656 52.2344 78.4295 45.0156 72.6517 45.0156ZM30.4017 52.75V65.4688H36.7212C40.1969 65.4688 41.9573 63.127 41.9573 59.2812C42.5441 54.877 40.9191 52.75 37.4434 52.75H30.4017Z" fill="#232A74"/>
</svg>
