<svg width="105" height="105" viewBox="0 0 105 105" fill="none" xmlns="http://www.w3.org/2000/svg">
<path fill-rule="evenodd" clip-rule="evenodd" d="M15.9712 0.485596C7.68692 0.485596 0.971191 7.20133 0.971191 15.4856V89.5144C0.971191 97.7987 7.68692 104.514 15.9712 104.514H89.9712C98.2555 104.514 104.971 97.7987 104.971 89.5144V15.4856C104.971 7.20133 98.2555 0.485596 89.9712 0.485596H15.9712ZM63.0415 23.0324C63.5055 23.0723 74.424 24.0111 81.326 29.561C85.0706 33.0156 92.375 52.7646 92.375 69.8384C92.375 70.1393 92.2952 70.4329 92.1502 70.6939C87.1079 79.5534 73.3546 81.8734 70.219 81.9713H70.1646C69.61 81.9713 69.088 81.7066 68.7617 81.2571L65.5899 76.8999C74.1413 74.6886 78.5094 70.9404 78.7631 70.7156C79.4773 70.0849 79.5461 68.9937 78.9154 68.276C78.2846 67.5546 77.1899 67.4894 76.4721 68.1129C76.3924 68.1817 68.3485 75.0366 52.5 75.0366C36.6805 75.0366 28.6366 68.2108 28.5315 68.1165C27.8137 67.4857 26.7226 67.5546 26.0883 68.2724C25.4539 68.9901 25.5228 70.0849 26.2405 70.7192C26.4942 70.9404 30.8624 74.6923 39.4137 76.9035L36.2419 81.2607C35.9156 81.7103 35.3936 81.9749 34.839 81.9749H34.7846C31.649 81.8734 17.8958 79.5534 12.8534 70.6975C12.7048 70.4365 12.625 70.1393 12.625 69.8384C12.625 52.7646 19.9294 33.0156 23.5834 29.6407C30.5796 24.0111 41.4981 23.0723 41.9585 23.036C42.6908 22.9635 43.3795 23.384 43.6804 24.051C43.6816 24.0538 43.6837 24.0588 43.6867 24.0658C43.7298 24.1666 43.9552 24.6939 44.206 25.4938C39.6385 26.2623 34.0342 27.8174 28.9592 30.9639C28.1472 31.4714 27.8935 32.5371 28.401 33.3527C28.9085 34.1647 29.9743 34.4185 30.7899 33.911C39.5044 28.5025 50.4048 28.2306 52.5 28.2306C54.5952 28.2306 65.492 28.5025 74.2138 33.911C74.5001 34.0886 74.8155 34.172 75.1273 34.172C75.7073 34.172 76.2764 33.882 76.6026 33.3527C77.1065 32.5371 76.8564 31.4678 76.0444 30.9639C70.9694 27.8137 65.3615 26.2623 60.7976 25.4938C61.0622 24.6419 61.3015 24.0945 61.3232 24.051C61.6205 23.384 62.3129 22.9708 63.0415 23.0324ZM35.1616 55.9691C35.1616 59.7971 37.8804 62.9037 41.2299 62.9037C44.583 62.9037 47.2981 59.7971 47.2981 55.9691C47.2981 52.1411 44.583 49.0345 41.2299 49.0345C37.8768 49.0345 35.1616 52.1411 35.1616 55.9691ZM57.7019 55.9691C57.7019 59.7971 60.4206 62.9037 63.7701 62.9037C67.1196 62.9037 69.8384 59.7971 69.8384 55.9691C69.8384 52.1411 67.1196 49.0345 63.7701 49.0345C60.417 49.0345 57.7019 52.1411 57.7019 55.9691Z" fill="#232A74"/>
</svg>
