<svg width="105" height="110" viewBox="0 0 105 110" fill="none" xmlns="http://www.w3.org/2000/svg">
<g clip-path="url(#clip0_64_53)">
<path d="M95.665 16.6942H9.54037C7.7055 16.6942 6.00024 17.1894 4.57959 18.1849L52.6035 58.8412L100.626 18.1849C99.2059 17.1885 97.499 16.6942 95.665 16.6942Z" fill="#232A74"/>
<path d="M103.149 20.4957L62.4902 54.8361L103.149 89.1764C104.176 87.6513 104.971 85.7953 104.971 83.7888V25.8833C104.971 23.8768 104.176 22.0216 103.149 20.4957Z" fill="#232A74"/>
<path d="M2.42629 20.4957C1.39771 22.0208 0.971191 23.8768 0.971191 25.8833V83.7888C0.971191 85.7945 1.39771 87.6505 2.42629 89.1764L42.9008 54.8361L2.42629 20.4957Z" fill="#232A74"/>
<path d="M59.9083 57.0256L53.6262 62.3564C53.3276 62.6092 52.9642 62.7356 52.6033 62.7356C52.2416 62.7356 51.8791 62.6092 51.5805 62.3564L45.2999 57.0274L4.58105 91.6634C6.00088 92.6615 7.70615 93.3346 9.54101 93.3346H95.6656C97.4997 93.3346 99.2058 92.6615 100.626 91.6634L59.9083 57.0256Z" fill="#232A74"/>
</g>
<defs>
<clipPath id="clip0_64_53">
<rect width="104" height="109" fill="white" transform="translate(0.971191 0.514404)"/>
</clipPath>
</defs>
</svg>
