<svg width="105" height="110" viewBox="0 0 105 110" fill="none" xmlns="http://www.w3.org/2000/svg">
<g clip-path="url(#clip0_64_48)">
<path d="M29.8601 3.25C13.9076 3.25 0.971191 16.1243 0.971191 32V78C0.971191 93.8757 13.9076 106.75 29.8601 106.75H76.0823C92.0347 106.75 104.971 93.8757 104.971 78V32C104.971 16.1243 92.0347 3.25 76.0823 3.25H29.8601ZM87.6379 14.75C90.8272 14.75 93.4156 17.326 93.4156 20.5C93.4156 23.674 90.8272 26.25 87.6379 26.25C84.4485 26.25 81.8601 23.674 81.8601 20.5C81.8601 17.326 84.4485 14.75 87.6379 14.75ZM52.9712 26.25C68.9236 26.25 81.8601 39.1243 81.8601 55C81.8601 70.8757 68.9236 83.75 52.9712 83.75C37.0187 83.75 24.0823 70.8757 24.0823 55C24.0823 39.1243 37.0187 26.25 52.9712 26.25ZM52.9712 37.75C48.3741 37.75 43.9653 39.5674 40.7147 42.8024C37.464 46.0374 35.6379 50.425 35.6379 55C35.6379 59.575 37.464 63.9626 40.7147 67.1976C43.9653 70.4326 48.3741 72.25 52.9712 72.25C57.5683 72.25 61.9771 70.4326 65.2277 67.1976C68.4783 63.9626 70.3045 59.575 70.3045 55C70.3045 50.425 68.4783 46.0374 65.2277 42.8024C61.9771 39.5674 57.5683 37.75 52.9712 37.75Z" fill="#232A74"/>
</g>
<defs>
<clipPath id="clip0_64_48">
<rect width="104" height="109" fill="white" transform="translate(0.971191 0.5)"/>
</clipPath>
</defs>
</svg>
