<svg width="105" height="84" viewBox="0 0 105 84" fill="none" xmlns="http://www.w3.org/2000/svg">
<g clip-path="url(#clip0_64_66)">
<path d="M102.798 11.4444C101.602 7.1444 98.076 3.75441 93.604 2.60441C85.492 0.514405 52.9712 0.514404 52.9712 0.514404C52.9712 0.514404 20.4504 0.514405 12.3384 2.60441C7.86639 3.75441 4.34079 7.1444 3.14479 11.4444C0.971191 19.2444 0.971191 40.5144 0.971191 40.5144C0.971191 40.5144 0.971191 61.7844 3.14479 69.5844C4.34079 73.8844 7.86639 77.2744 12.3384 78.4244C20.4504 80.5144 52.9712 80.5144 52.9712 80.5144C52.9712 80.5144 85.492 80.5144 93.604 78.4244C98.0812 77.2744 101.602 73.8844 102.798 69.5844C104.971 61.7844 104.971 40.5144 104.971 40.5144C104.971 40.5144 104.971 19.2444 102.798 11.4444ZM42.5712 57.8344V23.1944L73.7712 40.5144L42.5712 57.8344Z" fill="#232A74"/>
</g>
<defs>
<clipPath id="clip0_64_66">
<rect width="104" height="83" fill="white" transform="translate(0.971191 0.514404)"/>
</clipPath>
</defs>
</svg>
