<svg width="142" height="138" viewBox="0 0 142 138" fill="none" xmlns="http://www.w3.org/2000/svg">
<g clip-path="url(#clip0_64_102)">
<path d="M90.5704 106.554C86.6159 106.99 82.6553 107.071 78.6878 106.797C74.6541 106.46 70.7767 105.733 67.0539 104.619C63.3283 103.504 59.6809 102.006 56.1112 100.125C52.62 98.1687 49.3313 95.8344 46.2448 93.1207C40.0714 87.6929 35.4051 81.2905 32.2356 73.9071L32.2357 73.9071L32.2309 73.8963C28.9853 66.5754 27.289 58.9096 27.1406 50.8911C26.9921 42.8718 28.3983 34.8502 31.3693 26.8205L31.3728 26.8107C34.2663 18.7322 38.6949 11.2971 44.6688 4.50261C45.4211 3.64706 46.3321 3.17252 47.4438 3.04991C48.5533 2.92754 49.4228 3.20138 50.1423 3.83398C50.8618 4.46659 51.2447 5.29384 51.2654 6.40992C51.2861 7.52821 50.932 8.49245 50.1798 9.34801C44.9647 15.2795 41.0996 21.7691 38.5956 28.815C36.0243 35.7807 34.7996 42.7937 34.9302 49.8484C35.0608 56.9032 36.54 63.631 39.3676 70.0241C42.1325 76.5151 46.2407 82.1549 51.6807 86.938C57.1205 91.7208 63.222 95.0933 69.9789 97.0448C76.7162 98.9907 83.5955 99.5766 90.6094 98.803L109.758 96.6911L112.01 96.4427L110.308 94.9461L90.8035 77.797C90.084 77.1644 89.7011 76.3371 89.6804 75.221C89.6597 74.1027 90.0138 73.1385 90.766 72.2829C91.5182 71.4274 92.4292 70.9528 93.541 70.8302C94.6505 70.7079 95.52 70.9817 96.2395 71.6143L124.291 96.2783C125.011 96.9109 125.394 97.7381 125.414 98.8542C125.435 99.9725 125.081 100.937 124.329 101.792L97.3026 132.531C96.5503 133.387 95.6394 133.861 94.5276 133.984C93.4181 134.106 92.5486 133.832 91.8291 133.2C91.1096 132.567 90.7267 131.74 90.7061 130.624C90.6854 129.505 91.0394 128.541 91.7916 127.686L110.689 106.193L112.378 104.271L109.834 104.538L90.5759 106.553L90.5759 106.553L90.5704 106.554Z" stroke="#E8EDF7" stroke-width="2"/>
</g>
<defs>
<clipPath id="clip0_64_102">
<rect width="126.065" height="71.628" fill="white" transform="translate(94.6753 137.034) rotate(-138.677)"/>
</clipPath>
</defs>
</svg>
