<svg width="724" height="526" viewBox="0 0 724 526" fill="none" xmlns="http://www.w3.org/2000/svg">
<path d="M42.0063 219C42.0063 213.24 43.2863 207.267 45.8463 201.08C48.4063 194.68 51.8196 188.813 56.0863 183.48C60.3529 177.933 64.9396 173.773 69.8463 171L166.806 115V147L69.8463 203V273.4L166.806 217.4V249.4L69.8463 305.4V375.8L166.806 319.8V351.8L69.8463 407.8C62.3796 412.067 55.8729 412.6 50.3263 409.4C44.7796 406.2 42.0063 400.333 42.0063 391.8V219ZM166.806 319.8L69.8463 375.8L42.0063 359.8L138.966 303.8L166.806 319.8ZM166.806 217.4L69.8463 273.4L42.0063 257.4L138.966 201.4L166.806 217.4ZM166.806 115L69.8463 171C64.9396 173.773 60.3529 177.933 56.0863 183.48C51.8196 188.813 48.4063 194.68 45.8463 201.08C43.2863 207.267 42.0063 213.24 42.0063 219V391.8C42.0063 400.333 44.7796 406.2 50.3263 409.4L22.4863 393.4C16.9396 390.2 14.1663 384.333 14.1663 375.8V203C14.1663 197.24 15.4463 191.267 18.0063 185.08C20.5663 178.68 23.9796 172.813 28.2463 167.48C32.5129 161.933 37.0996 157.773 42.0063 155L138.966 99L166.806 115ZM222.319 187L250.159 171V267L319.279 227V131L347.119 115V179C347.119 184.547 345.732 190.52 342.959 196.92C340.399 203.32 336.985 209.293 332.719 214.84C328.665 220.173 324.185 224.227 319.279 227C326.532 222.733 332.932 222.2 338.479 225.4C344.239 228.6 347.119 234.467 347.119 243V339L319.279 355V259L250.159 299V395L222.319 411V187ZM319.279 259V355L291.439 339V243L319.279 259ZM338.799 225.4C333.039 222.2 326.532 222.733 319.279 227L291.439 211C298.905 206.733 305.412 206.2 310.959 209.4L338.799 225.4ZM347.119 115L319.279 131L291.439 115L319.279 99L347.119 115ZM319.279 131V227L291.439 211V115L319.279 131ZM319.279 227L250.159 267L222.319 251L291.439 211L319.279 227ZM250.159 171L222.319 187L194.479 171L222.319 155L250.159 171ZM222.319 187V411L194.479 395V171L222.319 187ZM430.471 158.2L499.591 118.2C506.845 113.933 513.245 113.4 518.791 116.6C524.551 119.8 527.431 125.667 527.431 134.2V319.8C527.431 325.347 526.045 331.32 523.271 337.72C520.711 344.12 517.298 350.093 513.031 355.64C508.978 360.973 504.498 365.027 499.591 367.8L430.471 407.8C423.005 412.067 416.498 412.6 410.951 409.4C405.405 406.2 402.631 400.333 402.631 391.8V206.2C402.631 200.44 403.911 194.467 406.471 188.28C409.031 181.88 412.445 176.013 416.711 170.68C420.978 165.133 425.565 160.973 430.471 158.2ZM430.471 375.8L499.591 335.8V150.2L430.471 190.2V375.8ZM499.591 150.2V335.8L471.751 319.8V134.2L499.591 150.2ZM499.591 335.8L430.471 375.8L402.631 359.8L471.751 319.8L499.591 335.8ZM519.111 116.6C513.351 113.4 506.845 113.933 499.591 118.2L430.471 158.2C425.565 160.973 420.978 165.133 416.711 170.68C412.445 176.013 409.031 181.88 406.471 188.28C403.911 194.467 402.631 200.44 402.631 206.2V391.8C402.631 400.333 405.405 406.2 410.951 409.4L383.111 393.4C377.565 390.2 374.791 384.333 374.791 375.8V190.2C374.791 184.44 376.071 178.467 378.631 172.28C381.191 165.88 384.605 160.013 388.871 154.68C393.138 149.133 397.725 144.973 402.631 142.2L471.751 102.2C479.218 97.9333 485.725 97.4 491.271 100.6L519.111 116.6ZM638.304 148.6C648.117 142.84 657.184 140.6 665.504 141.88C674.037 142.947 680.864 146.893 685.984 153.72C691.104 160.333 693.664 169.293 693.664 180.6V308.6C693.664 317.133 692.17 326.093 689.184 335.48C686.197 344.867 682.144 354.04 677.024 363C671.904 371.96 666.037 380.067 659.424 387.32C652.81 394.573 645.77 400.333 638.304 404.6C628.49 410.147 619.317 412.387 610.784 411.32C602.464 410.253 595.744 406.307 590.624 399.48C585.504 392.867 582.944 383.907 582.944 372.6V244.6C582.944 236.067 584.437 227.107 587.424 217.72C590.41 208.333 594.464 199.16 599.584 190.2C604.704 181.24 610.57 173.133 617.184 165.88C624.01 158.627 631.05 152.867 638.304 148.6ZM666.144 196.6C666.144 188.067 663.37 182.2 657.824 179C652.277 175.8 645.77 176.333 638.304 180.6C633.397 183.373 628.81 187.533 624.544 193.08C620.49 198.413 617.184 204.28 614.624 210.68C612.064 216.867 610.784 222.84 610.784 228.6V356.6C610.784 365.133 613.557 371 619.104 374.2C624.65 377.4 631.05 376.867 638.304 372.6C643.21 369.827 647.797 365.773 652.064 360.44C656.33 354.893 659.744 348.92 662.304 342.52C664.864 336.12 666.144 330.147 666.144 324.6V196.6ZM657.824 179C663.37 182.2 666.144 188.067 666.144 196.6V324.6C666.144 330.147 664.864 336.12 662.304 342.52C659.744 348.92 656.33 354.893 652.064 360.44C647.797 365.773 643.21 369.827 638.304 372.6C631.05 376.867 624.65 377.4 619.104 374.2L591.264 358.2C596.81 361.4 603.317 360.867 610.784 356.6C615.477 353.827 619.957 349.773 624.224 344.44C628.49 338.893 631.904 332.92 634.464 326.52C637.024 320.12 638.304 314.147 638.304 308.6V180.6C638.304 172.067 635.53 166.2 629.984 163L657.824 179ZM677.024 145.4C671.904 142.627 666.037 141.453 659.424 141.88C652.81 142.093 645.77 144.333 638.304 148.6C631.05 152.867 624.01 158.627 617.184 165.88C610.57 173.133 604.704 181.24 599.584 190.2C594.464 199.16 590.41 208.333 587.424 217.72C584.437 227.107 582.944 236.067 582.944 244.6V372.6C582.944 381.133 584.437 388.387 587.424 394.36C590.41 400.333 594.464 404.813 599.584 407.8L571.744 391.8C566.837 388.813 562.784 384.333 559.584 378.36C556.597 372.387 555.104 365.133 555.104 356.6V228.6C555.104 220.067 556.597 211.107 559.584 201.72C562.57 192.333 566.624 183.16 571.744 174.2C577.077 165.24 583.05 157.133 589.664 149.88C596.277 142.627 603.317 136.867 610.784 132.6C618.037 128.333 624.97 126.093 631.584 125.88C638.41 125.453 644.384 126.627 649.504 129.4L677.024 145.4Z" fill="#364FA5"/>
<path d="M58.0063 228C58.0063 222.24 59.2863 216.267 61.8463 210.08C64.4063 203.68 67.8196 197.813 72.0863 192.48C76.3529 186.933 80.9396 182.773 85.8463 180L182.806 124V156L85.8463 212V282.4L182.806 226.4V258.4L85.8463 314.4V384.8L182.806 328.8V360.8L85.8463 416.8C78.3796 421.067 71.8729 421.6 66.3263 418.4C60.7796 415.2 58.0063 409.333 58.0063 400.8V228ZM182.806 328.8L85.8463 384.8L58.0063 368.8L154.966 312.8L182.806 328.8ZM182.806 226.4L85.8463 282.4L58.0063 266.4L154.966 210.4L182.806 226.4ZM182.806 124L85.8463 180C80.9396 182.773 76.3529 186.933 72.0863 192.48C67.8196 197.813 64.4063 203.68 61.8463 210.08C59.2863 216.267 58.0063 222.24 58.0063 228V400.8C58.0063 409.333 60.7796 415.2 66.3263 418.4L38.4863 402.4C32.9396 399.2 30.1663 393.333 30.1663 384.8V212C30.1663 206.24 31.4463 200.267 34.0063 194.08C36.5663 187.68 39.9796 181.813 44.2463 176.48C48.5129 170.933 53.0996 166.773 58.0063 164L154.966 108L182.806 124ZM238.319 196L266.159 180V276L335.279 236V140L363.119 124V188C363.119 193.547 361.732 199.52 358.959 205.92C356.399 212.32 352.985 218.293 348.719 223.84C344.665 229.173 340.185 233.227 335.279 236C342.532 231.733 348.932 231.2 354.479 234.4C360.239 237.6 363.119 243.467 363.119 252V348L335.279 364V268L266.159 308V404L238.319 420V196ZM335.279 268V364L307.439 348V252L335.279 268ZM354.799 234.4C349.039 231.2 342.532 231.733 335.279 236L307.439 220C314.905 215.733 321.412 215.2 326.959 218.4L354.799 234.4ZM363.119 124L335.279 140L307.439 124L335.279 108L363.119 124ZM335.279 140V236L307.439 220V124L335.279 140ZM335.279 236L266.159 276L238.319 260L307.439 220L335.279 236ZM266.159 180L238.319 196L210.479 180L238.319 164L266.159 180ZM238.319 196V420L210.479 404V180L238.319 196ZM446.471 167.2L515.591 127.2C522.845 122.933 529.245 122.4 534.791 125.6C540.551 128.8 543.431 134.667 543.431 143.2V328.8C543.431 334.347 542.045 340.32 539.271 346.72C536.711 353.12 533.298 359.093 529.031 364.64C524.978 369.973 520.498 374.027 515.591 376.8L446.471 416.8C439.005 421.067 432.498 421.6 426.951 418.4C421.405 415.2 418.631 409.333 418.631 400.8V215.2C418.631 209.44 419.911 203.467 422.471 197.28C425.031 190.88 428.445 185.013 432.711 179.68C436.978 174.133 441.565 169.973 446.471 167.2ZM446.471 384.8L515.591 344.8V159.2L446.471 199.2V384.8ZM515.591 159.2V344.8L487.751 328.8V143.2L515.591 159.2ZM515.591 344.8L446.471 384.8L418.631 368.8L487.751 328.8L515.591 344.8ZM535.111 125.6C529.351 122.4 522.845 122.933 515.591 127.2L446.471 167.2C441.565 169.973 436.978 174.133 432.711 179.68C428.445 185.013 425.031 190.88 422.471 197.28C419.911 203.467 418.631 209.44 418.631 215.2V400.8C418.631 409.333 421.405 415.2 426.951 418.4L399.111 402.4C393.565 399.2 390.791 393.333 390.791 384.8V199.2C390.791 193.44 392.071 187.467 394.631 181.28C397.191 174.88 400.605 169.013 404.871 163.68C409.138 158.133 413.725 153.973 418.631 151.2L487.751 111.2C495.218 106.933 501.725 106.4 507.271 109.6L535.111 125.6ZM654.304 157.6C664.117 151.84 673.184 149.6 681.504 150.88C690.037 151.947 696.864 155.893 701.984 162.72C707.104 169.333 709.664 178.293 709.664 189.6V317.6C709.664 326.133 708.17 335.093 705.184 344.48C702.197 353.867 698.144 363.04 693.024 372C687.904 380.96 682.037 389.067 675.424 396.32C668.81 403.573 661.77 409.333 654.304 413.6C644.49 419.147 635.317 421.387 626.784 420.32C618.464 419.253 611.744 415.307 606.624 408.48C601.504 401.867 598.944 392.907 598.944 381.6V253.6C598.944 245.067 600.437 236.107 603.424 226.72C606.41 217.333 610.464 208.16 615.584 199.2C620.704 190.24 626.57 182.133 633.184 174.88C640.01 167.627 647.05 161.867 654.304 157.6ZM682.144 205.6C682.144 197.067 679.37 191.2 673.824 188C668.277 184.8 661.77 185.333 654.304 189.6C649.397 192.373 644.81 196.533 640.544 202.08C636.49 207.413 633.184 213.28 630.624 219.68C628.064 225.867 626.784 231.84 626.784 237.6V365.6C626.784 374.133 629.557 380 635.104 383.2C640.65 386.4 647.05 385.867 654.304 381.6C659.21 378.827 663.797 374.773 668.064 369.44C672.33 363.893 675.744 357.92 678.304 351.52C680.864 345.12 682.144 339.147 682.144 333.6V205.6ZM673.824 188C679.37 191.2 682.144 197.067 682.144 205.6V333.6C682.144 339.147 680.864 345.12 678.304 351.52C675.744 357.92 672.33 363.893 668.064 369.44C663.797 374.773 659.21 378.827 654.304 381.6C647.05 385.867 640.65 386.4 635.104 383.2L607.264 367.2C612.81 370.4 619.317 369.867 626.784 365.6C631.477 362.827 635.957 358.773 640.224 353.44C644.49 347.893 647.904 341.92 650.464 335.52C653.024 329.12 654.304 323.147 654.304 317.6V189.6C654.304 181.067 651.53 175.2 645.984 172L673.824 188ZM693.024 154.4C687.904 151.627 682.037 150.453 675.424 150.88C668.81 151.093 661.77 153.333 654.304 157.6C647.05 161.867 640.01 167.627 633.184 174.88C626.57 182.133 620.704 190.24 615.584 199.2C610.464 208.16 606.41 217.333 603.424 226.72C600.437 236.107 598.944 245.067 598.944 253.6V381.6C598.944 390.133 600.437 397.387 603.424 403.36C606.41 409.333 610.464 413.813 615.584 416.8L587.744 400.8C582.837 397.813 578.784 393.333 575.584 387.36C572.597 381.387 571.104 374.133 571.104 365.6V237.6C571.104 229.067 572.597 220.107 575.584 210.72C578.57 201.333 582.624 192.16 587.744 183.2C593.077 174.24 599.05 166.133 605.664 158.88C612.277 151.627 619.317 145.867 626.784 141.6C634.037 137.333 640.97 135.093 647.584 134.88C654.41 134.453 660.384 135.627 665.504 138.4L693.024 154.4Z" fill="#6989ED"/>
</svg>
