<svg width="101" height="104" viewBox="0 0 101 104" fill="none" xmlns="http://www.w3.org/2000/svg">
<path d="M97.4329 23.356C98.5813 23.3016 99.3614 24.5062 98.8422 25.5318L85.1842 52.5102C84.6136 53.6374 84.543 54.9525 84.9899 56.1342L95.6843 84.4185C96.0909 85.4938 95.1863 86.608 94.0504 86.4311L64.1719 81.7784C62.9236 81.584 61.651 81.9233 60.6652 82.7135L37.07 101.625C36.173 102.344 34.8338 101.828 34.651 100.693L29.843 70.839C29.6422 69.5916 28.9262 68.4862 27.8701 67.7928L2.59307 51.1963C1.63209 50.5654 1.70893 49.1323 2.7319 48.6077L29.6389 34.8097C30.7631 34.2333 31.5932 33.2107 31.9263 31.9921L39.8994 2.82358C40.2025 1.71465 41.5892 1.3449 42.4042 2.15569L63.8416 23.4819C64.7373 24.373 65.9662 24.8464 67.2282 24.7867L97.4329 23.356Z" stroke="#E8EDF7" stroke-width="3"/>
</svg>
