<svg width="61" height="59" viewBox="0 0 61 59" fill="none" xmlns="http://www.w3.org/2000/svg">
<path d="M47.1048 2.76632C48.1686 2.33032 49.3072 3.20384 49.1617 4.34421L47.1812 19.8573C47.0212 21.1105 47.3954 22.3733 48.2124 23.337L58.325 35.2665C59.0683 36.1435 58.5894 37.4963 57.4599 37.7103L42.0941 40.6206C40.8528 40.8557 39.7675 41.6018 39.1033 42.6765L30.8827 55.9806C30.2784 56.9586 28.8437 56.9212 28.2912 55.913L20.775 42.1986C20.1678 41.0907 19.1229 40.2891 17.8955 39.9896L2.70225 36.2824C1.5854 36.0099 1.17764 34.6339 1.96572 33.7969L12.6863 22.4106C13.5523 21.4908 13.9918 20.2493 13.8974 18.9894L12.7281 3.39418C12.6422 2.24778 13.8248 1.43478 14.8644 1.92563L29.0062 8.60295C30.1487 9.14237 31.4652 9.1767 32.6342 8.69755L47.1048 2.76632Z" stroke="#E8EDF7" stroke-width="3"/>
</svg>
